<?xml version="1.0" encoding="utf-8"?>
<svg width="25px" height="20px" viewBox="0 0 25 20" version="1.1" xmlns:xlink="http://www.w3.org/1999/xlink" xmlns="http://www.w3.org/2000/svg">
  <g id="bar">
    <path d="M2.499 0L22.501 0Q22.6238 0 22.7459 0.0120334Q22.8681 0.0240667 22.9885 0.0480176Q23.1089 0.0719684 23.2264 0.107606Q23.3439 0.143244 23.4573 0.190225Q23.5707 0.237206 23.679 0.295079Q23.7873 0.352951 23.8894 0.421157Q23.9914 0.489364 24.0863 0.567247Q24.1812 0.64513 24.2681 0.73194Q24.3549 0.81875 24.4328 0.913651Q24.5106 1.00855 24.5788 1.11063Q24.647 1.21271 24.7049 1.32098Q24.7628 1.42925 24.8098 1.54267Q24.8568 1.6561 24.8924 1.77358Q24.928 1.89106 24.952 2.01147Q24.9759 2.13188 24.988 2.25406Q25 2.37623 25 2.499L25 2.501Q25 2.62377 24.988 2.74594Q24.9759 2.86812 24.952 2.98853Q24.928 3.10894 24.8924 3.22642Q24.8568 3.3439 24.8098 3.45733Q24.7628 3.57075 24.7049 3.67902Q24.647 3.78729 24.5788 3.88937Q24.5106 3.99145 24.4328 4.08635Q24.3549 4.18125 24.2681 4.26806Q24.1812 4.35487 24.0863 4.43275Q23.9914 4.51064 23.8894 4.57884Q23.7873 4.64705 23.679 4.70492Q23.5707 4.76279 23.4573 4.80977Q23.3439 4.85676 23.2264 4.89239Q23.1089 4.92803 22.9885 4.95198Q22.8681 4.97593 22.7459 4.98797Q22.6238 5 22.501 5L2.499 5Q2.37623 5 2.25406 4.98797Q2.13188 4.97593 2.01147 4.95198Q1.89106 4.92803 1.77358 4.89239Q1.6561 4.85676 1.54267 4.80977Q1.42925 4.76279 1.32098 4.70492Q1.21271 4.64705 1.11063 4.57884Q1.00855 4.51064 0.913651 4.43275Q0.81875 4.35487 0.73194 4.26806Q0.64513 4.18125 0.567247 4.08635Q0.489364 3.99145 0.421157 3.88937Q0.352951 3.78729 0.295079 3.67902Q0.237206 3.57075 0.190225 3.45733Q0.143244 3.3439 0.107606 3.22642Q0.0719684 3.10894 0.0480176 2.98853Q0.0240667 2.86812 0.0120334 2.74594Q0 2.62377 0 2.501L0 2.499Q0 2.37623 0.0120334 2.25406Q0.0240667 2.13188 0.0480176 2.01147Q0.0719684 1.89106 0.107606 1.77358Q0.143244 1.6561 0.190225 1.54267Q0.237206 1.42925 0.295079 1.32098Q0.352951 1.21271 0.421157 1.11063Q0.489364 1.00855 0.567247 0.913651Q0.64513 0.81875 0.73194 0.73194Q0.81875 0.64513 0.913651 0.567247Q1.00855 0.489364 1.11063 0.421157Q1.21271 0.352951 1.32098 0.295079Q1.42925 0.237206 1.54267 0.190225Q1.6561 0.143244 1.77358 0.107606Q1.89106 0.0719684 2.01147 0.0480176Q2.13188 0.0240667 2.25406 0.0120334Q2.37623 0 2.499 0Z" id="rect" fill="#000000" fill-rule="evenodd" stroke="none" />
    <path d="M2.499 7.5L22.501 7.5Q22.6238 7.5 22.7459 7.51203Q22.8681 7.52407 22.9885 7.54802Q23.1089 7.57197 23.2264 7.60761Q23.3439 7.64324 23.4573 7.69022Q23.5707 7.73721 23.679 7.79508Q23.7873 7.85295 23.8894 7.92116Q23.9914 7.98936 24.0863 8.06725Q24.1812 8.14513 24.2681 8.23194Q24.3549 8.31875 24.4328 8.41365Q24.5106 8.50855 24.5788 8.61063Q24.647 8.71271 24.7049 8.82098Q24.7628 8.92925 24.8098 9.04267Q24.8568 9.1561 24.8924 9.27358Q24.928 9.39106 24.952 9.51147Q24.9759 9.63188 24.988 9.75406Q25 9.87623 25 9.999L25 10.001Q25 10.1238 24.988 10.2459Q24.9759 10.3681 24.952 10.4885Q24.928 10.6089 24.8924 10.7264Q24.8568 10.8439 24.8098 10.9573Q24.7628 11.0707 24.7049 11.179Q24.647 11.2873 24.5788 11.3894Q24.5106 11.4914 24.4328 11.5863Q24.3549 11.6812 24.2681 11.7681Q24.1812 11.8549 24.0863 11.9328Q23.9914 12.0106 23.8894 12.0788Q23.7873 12.147 23.679 12.2049Q23.5707 12.2628 23.4573 12.3098Q23.3439 12.3568 23.2264 12.3924Q23.1089 12.428 22.9885 12.452Q22.8681 12.4759 22.7459 12.488Q22.6238 12.5 22.501 12.5L2.499 12.5Q2.37623 12.5 2.25406 12.488Q2.13188 12.4759 2.01147 12.452Q1.89106 12.428 1.77358 12.3924Q1.6561 12.3568 1.54267 12.3098Q1.42925 12.2628 1.32098 12.2049Q1.21271 12.147 1.11063 12.0788Q1.00855 12.0106 0.913651 11.9328Q0.81875 11.8549 0.73194 11.7681Q0.64513 11.6812 0.567247 11.5863Q0.489364 11.4914 0.421157 11.3894Q0.352951 11.2873 0.295079 11.179Q0.237206 11.0707 0.190225 10.9573Q0.143244 10.8439 0.107606 10.7264Q0.0719684 10.6089 0.0480176 10.4885Q0.0240667 10.3681 0.0120334 10.2459Q0 10.1238 0 10.001L0 9.999Q0 9.87623 0.0120334 9.75406Q0.0240667 9.63188 0.0480176 9.51147Q0.0719684 9.39106 0.107606 9.27358Q0.143244 9.1561 0.190225 9.04267Q0.237206 8.92925 0.295079 8.82098Q0.352951 8.71271 0.421157 8.61063Q0.489364 8.50855 0.567247 8.41365Q0.64513 8.31875 0.73194 8.23194Q0.81875 8.14513 0.913651 8.06725Q1.00855 7.98936 1.11063 7.92116Q1.21271 7.85295 1.32098 7.79508Q1.42925 7.73721 1.54267 7.69022Q1.6561 7.64324 1.77358 7.60761Q1.89106 7.57197 2.01147 7.54802Q2.13188 7.52407 2.25406 7.51203Q2.37623 7.5 2.499 7.5Z" id="rect2" fill="#000000" fill-rule="evenodd" stroke="none" />
    <path d="M2.499 15L22.501 15Q22.6238 15 22.7459 15.012Q22.8681 15.0241 22.9885 15.048Q23.1089 15.072 23.2264 15.1076Q23.3439 15.1432 23.4573 15.1902Q23.5707 15.2372 23.679 15.2951Q23.7873 15.353 23.8894 15.4212Q23.9914 15.4894 24.0863 15.5672Q24.1812 15.6451 24.2681 15.7319Q24.3549 15.8187 24.4328 15.9137Q24.5106 16.0086 24.5788 16.1106Q24.647 16.2127 24.7049 16.321Q24.7628 16.4293 24.8098 16.5427Q24.8568 16.6561 24.8924 16.7736Q24.928 16.8911 24.952 17.0115Q24.9759 17.1319 24.988 17.2541Q25 17.3762 25 17.499L25 17.501Q25 17.6238 24.988 17.7459Q24.9759 17.8681 24.952 17.9885Q24.928 18.1089 24.8924 18.2264Q24.8568 18.3439 24.8098 18.4573Q24.7628 18.5707 24.7049 18.679Q24.647 18.7873 24.5788 18.8894Q24.5106 18.9914 24.4328 19.0863Q24.3549 19.1812 24.2681 19.2681Q24.1812 19.3549 24.0863 19.4328Q23.9914 19.5106 23.8894 19.5788Q23.7873 19.647 23.679 19.7049Q23.5707 19.7628 23.4573 19.8098Q23.3439 19.8568 23.2264 19.8924Q23.1089 19.928 22.9885 19.952Q22.8681 19.9759 22.7459 19.988Q22.6238 20 22.501 20L2.499 20Q2.37623 20 2.25406 19.988Q2.13188 19.9759 2.01147 19.952Q1.89106 19.928 1.77358 19.8924Q1.6561 19.8568 1.54267 19.8098Q1.42925 19.7628 1.32098 19.7049Q1.21271 19.647 1.11063 19.5788Q1.00855 19.5106 0.913651 19.4328Q0.81875 19.3549 0.73194 19.2681Q0.64513 19.1812 0.567247 19.0863Q0.489364 18.9914 0.421157 18.8894Q0.352951 18.7873 0.295079 18.679Q0.237206 18.5707 0.190225 18.4573Q0.143244 18.3439 0.107606 18.2264Q0.0719684 18.1089 0.0480176 17.9885Q0.0240667 17.8681 0.0120334 17.7459Q0 17.6238 0 17.501L0 17.499Q0 17.3762 0.0120334 17.2541Q0.0240667 17.1319 0.0480176 17.0115Q0.0719684 16.8911 0.107606 16.7736Q0.143244 16.6561 0.190225 16.5427Q0.237206 16.4293 0.295079 16.321Q0.352951 16.2127 0.421157 16.1106Q0.489364 16.0086 0.567247 15.9137Q0.64513 15.8187 0.73194 15.7319Q0.81875 15.6451 0.913651 15.5672Q1.00855 15.4894 1.11063 15.4212Q1.21271 15.353 1.32098 15.2951Q1.42925 15.2372 1.54267 15.1902Q1.6561 15.1432 1.77358 15.1076Q1.89106 15.072 2.01147 15.048Q2.13188 15.0241 2.25406 15.012Q2.37623 15 2.499 15Z" id="rect3" fill="#000000" fill-rule="evenodd" stroke="none" />
  </g>
</svg>