<?xml version="1.0" standalone="no"?>
<!DOCTYPE svg PUBLIC "-//W3C//DTD SVG 20010904//EN" "http://www.w3.org/TR/2001/REC-SVG-20010904/DTD/svg10.dtd">
<!-- Created using Krita: https://krita.org -->
<svg xmlns="http://www.w3.org/2000/svg" 
    xmlns:xlink="http://www.w3.org/1999/xlink"
    xmlns:krita="http://krita.org/namespaces/svg/krita"
    xmlns:sodipodi="http://sodipodi.sourceforge.net/DTD/sodipodi-0.dtd"
    width="98.4pt"
    height="60.72pt"
    viewBox="0 0 98.4 60.72">
<defs/>
<rect fill="#000000" d="M0 0 L20 20 Z"></rect>
<path id="shape0" fill-rule="evenodd" stroke="#c1f57e" stroke-width="1.2" stroke-linecap="square" stroke-linejoin="bevel" d="M70.533 23.9654L70.3636 23.49L70.1639 22.9707L69.9518 22.4577L69.7276 21.9512L69.4914 21.4515L69.2434 20.9586L68.9837 20.4727L68.7127 19.9941L68.4304 19.5229L68.137 19.0594L67.8327 18.6036L67.5178 18.1558L67.1923 17.7162L66.8565 17.2849L66.5106 16.8622L66.1547 16.4482L65.7891 16.0431L65.4138 15.6471L65.0291 15.2603L64.6352 14.883L64.2323 14.5154L63.8205 14.1576L63.4 13.8098L62.9711 13.4722L62.5338 13.145L62.0884 12.8284L61.6351 12.5225L61.174 12.2275L60.7053 11.9437L60.2293 11.6712L59.746 11.4102L59.2558 11.1608L58.7587 10.9233L58.2549 10.6979L57.7447 10.4847L57.2282 10.2839L56.7056 10.0957L56.177 9.92031L55.6428 9.75787L55.103 9.60859L54.5578 9.47266L54.0074 9.35024L53.452 9.24154L52.8919 9.14673L52.3271 9.066L51.7578 8.99953L51.1843 8.94751L50.6067 8.91013L50.0252 8.88756L49.44 8.88L48.8548 8.88756L48.2733 8.91013L47.6957 8.94751L47.1222 8.99953L46.5529 9.066L45.9881 9.14673L45.428 9.24154L44.8726 9.35024L44.3222 9.47266L43.777 9.60859L43.2372 9.75787L42.703 9.92031L42.1744 10.0957L41.6518 10.2839L41.1353 10.4847L40.6251 10.6979L40.1213 10.9233L39.6242 11.1608L39.134 11.4102L38.6507 11.6712L38.1747 11.9437L37.706 12.2275L37.2449 12.5225L36.7916 12.8284L36.3462 13.145L35.9089 13.4722L35.48 13.8098L35.0595 14.1576L34.6477 14.5154L34.2448 14.883L33.8509 15.2603L33.4662 15.6471L33.0909 16.0431L32.7253 16.4482L32.3694 16.8622L32.0235 17.2849L31.6877 17.7162L31.3622 18.1558L31.0473 18.6036L30.743 19.0594L30.4496 19.5229L30.1673 19.9941L29.8963 20.4727L29.6366 20.9586L29.3886 21.4515L29.1524 21.9512L28.9282 22.4577L28.7161 22.9707L28.5164 23.49L28.3292 24.0154L28.1547 24.5468L27.9932 25.0839L27.8447 25.6266L27.7095 26.1747L27.5877 26.728L27.4796 27.2864L27.4297 27.5845L27.2254 27.4504L26.9167 27.2587L26.6028 27.0746L26.2838 26.8982L25.96 26.7296L25.6313 26.569L25.2981 26.4166L24.9603 26.2724L24.6181 26.1365L24.2716 26.0091L23.9211 25.8904L23.5665 25.7804L23.2081 25.6793L22.8459 25.5872L22.4802 25.5043L22.1109 25.4306L21.7383 25.3663L21.3626 25.3116L20.9837 25.2665L20.6019 25.2312L20.2172 25.2059L19.8299 25.1906L19.44 25.1854L19.0501 25.1906L18.6628 25.2059L18.2781 25.2312L17.8963 25.2665L17.5174 25.3116L17.1416 25.3663L16.7691 25.4306L16.3998 25.5043L16.0341 25.5872L15.6719 25.6793L15.3135 25.7804L14.9589 25.8904L14.6084 26.0091L14.2619 26.1365L13.9197 26.2724L13.5819 26.4166L13.2487 26.569L12.92 26.7296L12.5962 26.8982L12.2772 27.0746L11.9633 27.2587L11.6546 27.4504L11.3512 27.6495L11.0532 27.856L10.7608 28.0697L10.474 28.2905L10.1931 28.5182L9.91815 28.7527L9.64928 28.9939L9.38662 29.2417L9.13031 29.4958L8.88047 29.7563L8.63725 30.0229L8.40076 30.2956L8.17114 30.5742L7.94852 30.8585L7.73303 31.1485L7.5248 31.444L7.32397 31.7449L7.13065 32.0511L6.94499 32.3624L6.76711 32.6787L6.59715 32.9998L6.43523 33.3257L6.28149 33.6562L6.13605 33.9912L5.99905 34.3305L5.87061 34.6741L5.75088 35.0217L5.63997 35.3733L5.53802 35.7288L5.44516 36.0879L5.36152 36.4506L5.28723 36.8168L5.22242 37.1862L5.16723 37.5589L5.12177 37.9346L5.08619 38.3133L5.06062 38.6947L5.04518 39.0788L5.04 39.4654L5.04518 39.8521L5.06062 40.2362L5.08619 40.6176L5.12177 40.9963L5.16723 41.372L5.22242 41.7446L5.28723 42.1141L5.36152 42.4803L5.44516 42.843L5.53802 43.2021L5.63997 43.5576L5.75088 43.9092L5.87061 44.2568L5.99905 44.6004L6.13605 44.9397L6.28149 45.2747L6.43523 45.6052L6.59715 45.9311L6.76711 46.2522L6.94499 46.5685L7.13065 46.8798L7.32397 47.1859L7.5248 47.4868L7.73303 47.7824L7.94852 48.0724L8.17114 48.3567L8.40076 48.6353L8.63725 48.9079L8.88047 49.1746L9.13031 49.435L9.38662 49.6892L9.64928 49.937L9.91815 50.1782L10.1931 50.4127L10.474 50.6404L10.7608 50.8612L11.0532 51.0749L11.3512 51.2813L11.6546 51.4805L11.9633 51.6722L12.2772 51.8563L12.5962 52.0327L12.92 52.2013L13.2487 52.3618L13.5819 52.5143L13.9197 52.6585L14.2619 52.7944L14.6084 52.9217L14.9589 53.0405L15.3135 53.1505L15.6719 53.2516L16.0341 53.3437L16.3998 53.4266L16.7691 53.5003L17.1416 53.5645L17.5174 53.6193L17.8963 53.6644L18.2781 53.6996L18.6628 53.725L19.0501 53.7403L19.1558 53.7417L19.2 53.76L75.84 53.76L75.9474 53.7155L76.2187 53.7663L76.5951 53.8209L76.9762 53.8603L77.3618 53.8842L77.7515 53.8922L78.1412 53.8842L78.1812 53.8817L78.4403 53.9118L78.8658 53.9502L79.2944 53.9778L79.7258 53.9944L80.16 54L80.5942 53.9944L81.0256 53.9778L81.4542 53.9502L81.8797 53.9118L82.302 53.8627L82.7211 53.8032L83.1367 53.7332L83.5487 53.653L83.9571 53.5626L84.3615 53.4623L84.7621 53.3522L85.1584 53.2323L85.5506 53.1028L85.9383 52.964L86.3215 52.8158L86.7001 52.6584L87.0738 52.4921L87.4427 52.3168L87.8064 52.1328L88.165 51.9402L88.5181 51.7391L88.8659 51.5296L89.208 51.312L89.5443 51.0862L89.8747 50.8526L90.1992 50.6111L90.5174 50.362L90.8294 50.1053L91.1349 49.8412L91.4339 49.5699L91.7261 49.2915L92.0115 49.0061L92.2899 48.7139L92.5612 48.4149L92.8253 48.1094L93.082 47.7974L93.3311 47.4792L93.5726 47.1547L93.8062 46.8243L94.032 46.488L94.2496 46.1459L94.4591 45.7981L94.6602 45.445L94.8528 45.0864L95.0368 44.7227L95.2121 44.3538L95.3784 43.9801L95.5358 43.6015L95.684 43.2183L95.8228 42.8306L95.9523 42.4384L96.0722 42.0421L96.1823 41.6415L96.2826 41.2371L96.373 40.8287L96.4532 40.4167L96.5232 40.0011L96.5827 39.582L96.6318 39.1597L96.6702 38.7342L96.6978 38.3056L96.7144 37.8742L96.72 37.44L96.7144 37.0058L96.6978 36.5744L96.6702 36.1458L96.6318 35.7203L96.5827 35.298L96.5232 34.8789L96.4532 34.4633L96.373 34.0513L96.2826 33.6429L96.1823 33.2385L96.0722 32.8379L95.9523 32.4416L95.8228 32.0494L95.684 31.6617L95.5358 31.2785L95.3784 30.8999L95.2121 30.5262L95.0368 30.1573L94.8528 29.7936L94.6602 29.435L94.4591 29.0819L94.2496 28.7341L94.032 28.392L93.8062 28.0557L93.5726 27.7253L93.3311 27.4008L93.082 27.0826L92.8253 26.7706L92.5612 26.4651L92.2899 26.1661L92.0115 25.8739L91.7261 25.5885L91.4339 25.3101L91.1349 25.0388L90.8294 24.7747L90.5174 24.518L90.1992 24.2689L89.8747 24.0274L89.5443 23.7938L89.208 23.568L88.8659 23.3504L88.5181 23.1409L88.165 22.9398L87.8064 22.7472L87.4427 22.5632L87.0738 22.3879L86.7001 22.2216L86.3215 22.0642L85.9383 21.916L85.5506 21.7772L85.1584 21.6477L84.7621 21.5278L84.3615 21.4177L83.9571 21.3174L83.5487 21.227L83.1367 21.1468L82.7211 21.0768L82.302 21.0173L81.8797 20.9682L81.4542 20.9298L81.0256 20.9022L80.5942 20.8856L80.16 20.88L79.7258 20.8856L79.2944 20.9022L78.8658 20.9298L78.4403 20.9682L78.018 21.0173L77.5989 21.0768L77.1833 21.1468L76.7713 21.227L76.3629 21.3174L75.9585 21.4177L75.5579 21.5278L75.1616 21.6477L74.7694 21.7772L74.3817 21.916L73.9985 22.0642L73.6199 22.2216L73.2462 22.3879L72.8773 22.5632L72.5136 22.7472L72.155 22.9398L71.8019 23.1409L71.4541 23.3504L71.112 23.568L70.7757 23.7938L70.533 23.9654"/>
</svg>
