<?xml version="1.0" standalone="no"?>
<!DOCTYPE svg PUBLIC "-//W3C//DTD SVG 20010904//EN" "http://www.w3.org/TR/2001/REC-SVG-20010904/DTD/svg10.dtd">
<!-- Created using Krita: https://krita.org -->
<svg xmlns="http://www.w3.org/2000/svg" 
    xmlns:xlink="http://www.w3.org/1999/xlink"
    xmlns:krita="http://krita.org/namespaces/svg/krita"
    xmlns:sodipodi="http://sodipodi.sourceforge.net/DTD/sodipodi-0.dtd"
    width="98.4pt"
    height="60.72pt"
    viewBox="0 0 98.4 60.72" enable-background="new 0 0 98.4 60.72" x="0" y="0" xml:space="preserve">
<defs/>
<path id="shape0" fill="#c1f57e" fill-rule="evenodd" stroke-width="1.2" stroke-linecap="square" stroke-linejoin="bevel" d="M584.16 216.84L584.152 216.252L584.13 215.667L584.093 215.086L584.041 214.51L583.975 213.937L583.895 213.37L583.8 212.806L583.692 212.248L583.571 211.695L583.435 211.147L583.287 210.604L583.125 210.067L582.951 209.535L582.764 209.01L582.564 208.491L582.352 207.978L582.128 207.471L581.891 206.971L581.643 206.479L581.384 205.993L581.113 205.514L580.83 205.043L580.537 204.579L580.233 204.124L579.918 203.676L579.592 203.236L579.257 202.805L578.911 202.382L578.555 201.968L578.189 201.563L577.814 201.167L577.429 200.78L577.035 200.403L576.632 200.035L576.22 199.678L575.8 199.33L575.371 198.992L574.934 198.665L574.488 198.348L574.035 198.042L573.574 197.748L573.105 197.464L572.629 197.191L572.146 196.93L571.656 196.681L571.159 196.443L570.655 196.218L570.145 196.005L569.628 195.804L569.106 195.616L568.577 195.44L568.043 195.278L567.503 195.129L566.958 194.993L566.407 194.87L565.852 194.762L565.292 194.667L564.727 194.586L564.158 194.52L563.584 194.468L563.007 194.43L562.425 194.408L561.84 194.4L561.255 194.408L560.673 194.43L560.096 194.468L559.522 194.52L558.953 194.586L558.388 194.667L557.828 194.762L557.273 194.87L556.722 194.993L556.177 195.129L555.637 195.278L555.103 195.44L554.574 195.616L554.052 195.804L553.535 196.005L553.025 196.218L552.521 196.443L552.024 196.681L551.534 196.93L551.051 197.191L550.575 197.464L550.106 197.748L549.645 198.042L549.192 198.348L548.746 198.665L548.309 198.992L547.88 199.33L547.46 199.678L547.048 200.035L546.645 200.403L546.251 200.78L545.866 201.167L545.491 201.563L545.125 201.968L544.769 202.382L544.423 202.805L544.088 203.236L543.762 203.676L543.447 204.124L543.143 204.579L542.85 205.043L542.567 205.514L542.296 205.993L542.037 206.479L541.789 206.971L541.552 207.471L541.328 207.978L541.116 208.491L540.916 209.01L540.729 209.535L540.555 210.067L540.393 210.604L540.245 211.147L540.109 211.695L539.988 212.248L539.88 212.806L539.83 213.104L539.625 212.97L539.317 212.779L539.003 212.595L538.684 212.418L538.36 212.25L538.031 212.089L537.698 211.937L537.36 211.792L537.018 211.656L536.672 211.529L536.321 211.41L535.967 211.3L535.608 211.199L535.246 211.107L534.88 211.024L534.511 210.951L534.138 210.886L533.763 210.832L533.384 210.787L533.002 210.751L532.617 210.726L532.23 210.711L531.84 210.705L531.45 210.711L531.063 210.726L530.678 210.751L530.296 210.787L529.917 210.832L529.542 210.886L529.169 210.951L528.8 211.024L528.434 211.107L528.072 211.199L527.713 211.3L527.359 211.41L527.008 211.529L526.662 211.656L526.32 211.792L525.982 211.937L525.649 212.089L525.32 212.25L524.996 212.418L524.677 212.595L524.363 212.779L524.055 212.97L523.751 213.17L523.453 213.376L523.161 213.59L522.874 213.81L522.593 214.038L522.318 214.273L522.049 214.514L521.787 214.762L521.53 215.016L521.28 215.276L521.037 215.543L520.801 215.816L520.571 216.094L520.349 216.379L520.133 216.669L519.925 216.964L519.724 217.265L519.531 217.571L519.345 217.882L519.167 218.199L518.997 218.52L518.835 218.846L518.681 219.176L518.536 219.511L518.399 219.851L518.271 220.194L518.151 220.542L518.04 220.893L517.938 221.249L517.845 221.608L517.762 221.971L517.687 222.337L517.622 222.706L517.567 223.079L517.522 223.455L517.486 223.833L517.461 224.215L517.445 224.599L517.44 224.985L517.445 225.372L517.461 225.756L517.486 226.138L517.522 226.516L517.567 226.892L517.622 227.265L517.687 227.634L517.762 228L517.845 228.363L517.938 228.722L518.04 229.078L518.151 229.429L518.271 229.777L518.399 230.12L518.536 230.46L518.681 230.795L518.835 231.125L518.997 231.451L519.167 231.772L519.345 232.089L519.531 232.4L519.724 232.706L519.925 233.007L520.133 233.302L520.349 233.592L520.571 233.877L520.801 234.155L521.037 234.428L521.28 234.695L521.53 234.955L521.787 235.209L522.049 235.457L522.318 235.698L522.593 235.933L522.874 236.16L523.161 236.381L523.453 236.595L523.751 236.801L524.055 237.001L524.363 237.192L524.677 237.376L524.996 237.553L525.32 237.721L525.649 237.882L525.982 238.034L526.32 238.179L526.662 238.314L527.008 238.442L527.359 238.56L527.713 238.67L528.072 238.772L528.434 238.864L528.8 238.947L529.169 239.02L529.542 239.085L529.917 239.139L530.296 239.184L530.678 239.22L531.063 239.245L531.45 239.26L531.556 239.262L531.6 239.28L588.24 239.28L588.347 239.236L588.619 239.286L588.995 239.341L589.376 239.38L589.762 239.404L590.151 239.412L590.541 239.404L590.927 239.38L591.308 239.341L591.684 239.286L592.055 239.217L592.421 239.133L592.781 239.034L593.136 238.922L593.483 238.796L593.824 238.657L594.158 238.505L594.485 238.34L594.804 238.163L595.115 237.974L595.418 237.773L595.713 237.56L595.998 237.337L596.274 237.103L596.54 236.858L596.797 236.603L597.044 236.339L597.279 236.065L597.505 235.781L597.718 235.489L597.921 235.189L598.111 234.88L598.29 234.563L598.456 234.239L598.609 233.907L598.75 233.569L598.876 233.223L598.99 232.872L599.089 232.514L599.173 232.151L599.243 231.783L599.298 231.409L599.338 231.031L599.362 230.648L599.37 230.261L599.362 229.874L599.338 229.492L599.298 229.113L599.243 228.74L599.173 228.371L599.089 228.008L598.99 227.651L598.876 227.299L598.75 226.954L598.609 226.615L598.456 226.284L598.29 225.959L598.111 225.643L597.921 225.334L597.718 225.033L597.505 224.741L597.279 224.458L597.044 224.184L596.797 223.919L596.54 223.664L596.274 223.42L595.998 223.186L595.713 222.962L595.418 222.75L595.115 222.549L594.804 222.36L594.485 222.182L594.158 222.018L593.824 221.865L593.483 221.726L593.136 221.6L592.781 221.488L592.421 221.39L592.055 221.306L591.684 221.236L591.308 221.182L590.927 221.142L590.541 221.118L590.151 221.11L589.762 221.118L589.376 221.142L588.995 221.182L588.619 221.236L588.285 221.299L588.24 221.28L583.722 221.28L583.8 220.874L583.895 220.31L583.975 219.743L584.041 219.17L584.093 218.594L584.13 218.013L584.152 217.428L584.16 216.84"/>
</svg>
