<?xml version="1.0" standalone="no"?>
<!DOCTYPE svg PUBLIC "-//W3C//DTD SVG 20010904//EN" "http://www.w3.org/TR/2001/REC-SVG-20010904/DTD/svg10.dtd">
<!-- Created using Krita: https://krita.org -->
<svg xmlns="http://www.w3.org/2000/svg" 
    xmlns:xlink="http://www.w3.org/1999/xlink"
    xmlns:krita="http://krita.org/namespaces/svg/krita"
    xmlns:sodipodi="http://sodipodi.sourceforge.net/DTD/sodipodi-0.dtd"
    width="1190.4pt"
    height="841.92pt"
    viewBox="0 0 1190.4 841.92">
<defs/>
<path id="shape0" transform="translate(501.239695647299, 186.147496627542)" fill="#000000" fill-rule="evenodd" stroke="#000000" stroke-width="0.96" stroke-linecap="square" stroke-linejoin="bevel" d="M15.0003 36.4525C32.4803 36.3125 49.27 35.8274 67.4403 36.0325C69.1094 36.0327 67.5892 30.7682 67.5603 28.1125C67.4153 14.7842 58.368 5.12287 45.4921 1.25961C38.9062 1.31319 38.4406 -1.99016 19.5603 1.89251C0.680047 5.77518 0.0779345 25.0519 0.000323301 37.6525C-0.0370446 43.7194 3.17024 52.7948 6.84033 56.3725C12.0049 61.4071 14.605 63.3559 22.3203 65.1325C26.8742 66.1811 39.0905 67.1406 49.3203 63.3325C64.5243 57.6728 64.1606 52.3927 67.2003 42.8125C63.3823 42.6994 64.9728 42.8133 55.5645 42.8703C56.4945 45.1126 53.7466 53.4004 45.9603 54.2125C37.828 55.0607 29.6259 56.7452 25.4403 54.8125C21.2547 52.8798 19.417 52.1713 17.8203 49.7725C15.4139 46.157 13.1157 43.0541 15.0003 36.4525"/><path id="shape1" transform="translate(519.076566111124, 201.240008280579)" fill="none" stroke="#000000" stroke-width="0.96" stroke-linecap="square" stroke-linejoin="bevel" d="M0.283455 9C-0.766557 9 1.39724 1.13244 1.96346 0"/><path id="shape2" transform="translate(516.72002126188, 195.602530689063)" fill="#fffdfd" fill-rule="evenodd" stroke="#ffffff" stroke-width="0.96" stroke-linecap="square" stroke-linejoin="bevel" d="M0 18.7175C14.542 18.9365 30.5136 18.8449 42.24 18.7175C38.2842 5.25058 30.1242 -0.949416 17.76 0.117477C4.36697 3.14505 1.55577 7.24951 0 18.7175Z"/>
</svg>
