<?xml version="1.0" encoding="utf-8"?>
<svg width="19px" height="20px" viewBox="0 0 19 20" version="1.1" xmlns:xlink="http://www.w3.org/1999/xlink" xmlns="http://www.w3.org/2000/svg">
  <defs>
    <path d="M0 8C0 3.58172 3.58172 0 8 0C12.4183 0 16 3.58172 16 8C16 12.4183 12.4183 16 8 16C3.58172 16 0 12.4183 0 8Z" id="path_1" />
    <clipPath id="clip_1">
      <use xlink:href="#path_1" />
    </clipPath>
  </defs>
  <g id="search">
    <g id="elipse">
      <g clip-path="url(#clip_1)">
        <use xlink:href="#path_1" fill="none" stroke="#000000" stroke-width="6" />
      </g>
    </g>
    <path d="M12.0599 13.1827L12.0613 13.1813Q12.1134 13.1292 12.1703 13.0825Q12.2272 13.0358 12.2885 12.9948Q12.3497 12.9539 12.4147 12.9192Q12.4796 12.8845 12.5476 12.8563Q12.6157 12.8281 12.6861 12.8068Q12.7566 12.7854 12.8288 12.771Q12.9011 12.7567 12.9743 12.7494Q13.0476 12.7422 13.1213 12.7422Q13.1949 12.7422 13.2682 12.7494Q13.3415 12.7567 13.4137 12.771Q13.4859 12.7854 13.5564 12.8068Q13.6269 12.8281 13.6949 12.8563Q13.763 12.8845 13.8279 12.9192Q13.8928 12.9539 13.9541 12.9948Q14.0153 13.0358 14.0722 13.0825Q14.1292 13.1292 14.1812 13.1813L17.7182 16.7182Q17.7702 16.7703 17.817 16.8272Q17.8637 16.8841 17.9046 16.9454Q17.9455 17.0066 17.9802 17.0715Q18.0149 17.1365 18.0431 17.2045Q18.0713 17.2726 18.0927 17.343Q18.1141 17.4135 18.1284 17.4857Q18.1428 17.558 18.15 17.6312Q18.1572 17.7045 18.1572 17.7782Q18.1572 17.8518 18.15 17.9251Q18.1428 17.9984 18.1284 18.0706Q18.1141 18.1428 18.0927 18.2133Q18.0713 18.2838 18.0431 18.3518Q18.0149 18.4198 17.9802 18.4848Q17.9455 18.5497 17.9046 18.611Q17.8637 18.6722 17.817 18.7291Q17.7702 18.786 17.7182 18.8381L17.7168 18.8395Q17.6647 18.8916 17.6078 18.9383Q17.5508 18.985 17.4896 19.026Q17.4284 19.0669 17.3634 19.1016Q17.2985 19.1363 17.2304 19.1645Q17.1624 19.1927 17.0919 19.214Q17.0215 19.2354 16.9492 19.2498Q16.877 19.2641 16.8037 19.2714Q16.7304 19.2786 16.6568 19.2786Q16.5832 19.2786 16.5099 19.2714Q16.4366 19.2641 16.3644 19.2498Q16.2921 19.2354 16.2217 19.214Q16.1512 19.1927 16.0832 19.1645Q16.0151 19.1363 15.9502 19.1016Q15.8852 19.0669 15.824 19.026Q15.7628 18.985 15.7059 18.9383Q15.6489 18.8916 15.5969 18.8395L12.0599 15.3026Q12.0078 15.2505 11.9611 15.1936Q11.9144 15.1367 11.8735 15.0754Q11.8326 15.0142 11.7979 14.9493Q11.7631 14.8843 11.735 14.8163Q11.7068 14.7482 11.6854 14.6778Q11.664 14.6073 11.6497 14.5351Q11.6353 14.4628 11.6281 14.3896Q11.6209 14.3163 11.6209 14.2426Q11.6209 14.169 11.6281 14.0957Q11.6353 14.0224 11.6497 13.9502Q11.664 13.878 11.6854 13.8075Q11.7068 13.737 11.735 13.669Q11.7631 13.601 11.7979 13.536Q11.8326 13.4711 11.8735 13.4098Q11.9144 13.3486 11.9611 13.2917Q12.0078 13.2347 12.0599 13.1827Z" id="rect" fill="#000000" fill-rule="evenodd" stroke="none" />
  </g>
</svg>